<?xml version="1.0" standalone="no"?><!DOCTYPE svg PUBLIC "-//W3C//DTD SVG 1.1//EN" "http://www.w3.org/Graphics/SVG/1.1/DTD/svg11.dtd"><svg t="1576833466386" class="icon" viewBox="0 0 1024 1024" version="1.1" xmlns="http://www.w3.org/2000/svg" p-id="924" xmlns:xlink="http://www.w3.org/1999/xlink" width="200" height="200"><defs><style type="text/css"></style></defs><path d="M0 512V0h1024v1024H0V512z" fill="#FF8000" p-id="925"></path><path d="M0 512V0h1024v1024H0V512z m412.111698 284.594717c0.386415-64.917736 1.352453-94.285283 2.898113-99.115472 4.443774-13.138113 20.673208-30.913208 95.637736-104.138868l75.737359-74.384905 1.159245 19.320754c0.77283 10.433208 1.352453 46.563019 1.54566 79.987925 0.386415 69.941132 1.932075 90.034717 8.114717 103.559245 3.477736 7.341887 21.059623 25.889811 79.60151 84.431698 41.346415 41.153208 77.669434 76.703396 80.760754 78.82868l5.603019 4.057358-0.193207-266.433207c-0.193208-153.020377-0.966038-271.649811-2.125283-278.798491-3.284528-23.571321-3.670943-23.957736-88.682264-108.582642-43.664906-43.471698-79.987925-78.828679-80.953963-78.828679s-1.932075 34.584151-2.31849 80.760755c-0.77283 90.034717-0.579623 88.102642-14.876981 107.036981-4.250566 5.603019-41.926038 43.858113-83.852076 85.011321l-76.123773 74.771321-1.159246-43.664906c-0.77283-24.150943-1.352453-102.206792-1.352453-173.886793 0-95.251321-0.579623-130.028679-2.125283-130.028679-1.352453 0-37.289057 34.777358-79.987924 77.476227-51.393208 51.2-79.408302 80.37434-82.69283 86.363773-2.704906 5.023396-5.989434 14.876981-6.955472 21.639245-2.704906 16.229434-2.898113 344.102642-0.193208 360.138868 3.670943 22.798491 4.443774 23.764528 89.455095 108.003019 43.664906 43.278491 79.987925 78.635472 80.760755 78.635472s1.932075-41.539623 2.31849-92.16z" fill="#FFFFFF" p-id="926"></path></svg>
